<?xml version="1.0" standalone="no"?>
<!DOCTYPE svg PUBLIC "-//W3C//DTD SVG 20010904//EN"
 "http://www.w3.org/TR/2001/REC-SVG-20010904/DTD/svg10.dtd">
<svg version="1.0" xmlns="http://www.w3.org/2000/svg"
 width="500.000000pt" height="500.000000pt" viewBox="0 0 500.000000 500.000000"
 preserveAspectRatio="xMidYMid meet">

<g transform="translate(0.000000,500.000000) scale(0.100000,-0.100000)"
fill="#000000" stroke="none">
<path d="M2375 3643 c-109 -13 -170 -28 -222 -53 -72 -36 -85 -46 -112 -90
-18 -31 -21 -50 -21 -162 l0 -128 243 -2 242 -3 3 -37 3 -38 -369 0 c-410 0
-426 -2 -500 -65 -91 -79 -133 -206 -133 -410 -1 -197 32 -319 111 -409 53
-60 101 -76 223 -76 l107 0 0 138 c0 208 34 292 142 349 l53 28 325 5 c283 5
330 8 365 23 51 23 91 61 118 112 21 38 22 56 25 315 2 175 0 288 -7 311 -15
50 -74 107 -146 140 -95 45 -309 70 -450 52z m-90 -167 c35 -35 41 -69 18
-108 -48 -82 -163 -51 -163 42 0 80 91 120 145 66z"/>
</g>
</svg>
