<?xml version="1.0" encoding="UTF-8"?>
<!DOCTYPE svg PUBLIC "-//W3C//DTD SVG 1.1//EN" "http://www.w3.org/Graphics/SVG/1.1/DTD/svg11.dtd">
<svg xmlns="http://www.w3.org/2000/svg" version="1.1" width="500px" height="500px" style="shape-rendering:geometricPrecision; text-rendering:geometricPrecision; image-rendering:optimizeQuality; fill-rule:evenodd; clip-rule:evenodd" xmlns:xlink="http://www.w3.org/1999/xlink">
<g><path style="opacity:1" fill="#fefefe" d="M -0.5,-0.5 C 166.167,-0.5 332.833,-0.5 499.5,-0.5C 499.5,166.167 499.5,332.833 499.5,499.5C 332.833,499.5 166.167,499.5 -0.5,499.5C -0.5,332.833 -0.5,166.167 -0.5,-0.5 Z"/></g>
<g><path style="opacity:1" fill="#3a78ad" d="M 268.5,136.5 C 255.035,150.465 241.369,164.299 227.5,178C 235.011,178.171 242.345,178.671 249.5,179.5C 233.5,179.5 217.5,179.5 201.5,179.5C 201.334,170.161 201.5,160.827 202,151.5C 205.41,144.533 210.91,140.033 218.5,138C 233.319,134.672 248.319,133.672 263.5,135C 265.382,135.198 267.048,135.698 268.5,136.5 Z"/></g>
<g><path style="opacity:1" fill="#3773a4" d="M 268.5,136.5 C 274.081,137.082 279.414,138.582 284.5,141C 287.787,142.467 290.454,144.634 292.5,147.5C 268.251,170.247 244.418,193.581 221,217.5C 215.601,223.392 210.434,229.392 205.5,235.5C 200.219,240.387 196.719,246.387 195,253.5C 194.5,263.161 194.334,272.828 194.5,282.5C 171.202,287.537 157.202,278.537 152.5,255.5C 173.414,233.085 194.914,211.085 217,189.5C 217.513,188.473 218.013,187.473 218.5,186.5C 228.833,186.5 239.167,186.5 249.5,186.5C 249.5,184.167 249.5,181.833 249.5,179.5C 242.345,178.671 235.011,178.171 227.5,178C 241.369,164.299 255.035,150.465 268.5,136.5 Z"/></g>
<g><path style="opacity:1" fill="#f8fafc" d="M 219.5,149.5 C 228.015,149.844 231.515,154.177 230,162.5C 224.159,169.394 218.825,169.061 214,161.5C 213.333,159.167 213.333,156.833 214,154.5C 215.73,152.598 217.563,150.931 219.5,149.5 Z"/></g>
<g><path style="opacity:1" fill="#366e9d" d="M 292.5,147.5 C 294.474,149.428 295.974,151.761 297,154.5C 297.667,173.5 297.667,192.5 297,211.5C 294.86,221.64 288.694,227.806 278.5,230C 258.167,230.333 237.833,230.667 217.5,231C 213.211,231.817 209.211,233.317 205.5,235.5C 210.434,229.392 215.601,223.392 221,217.5C 244.418,193.581 268.251,170.247 292.5,147.5 Z"/></g>
<g><path style="opacity:1" fill="#3877ac" d="M 218.5,186.5 C 218.013,187.473 217.513,188.473 217,189.5C 194.914,211.085 173.414,233.085 152.5,255.5C 148.346,239.93 148.513,224.263 153,208.5C 156.097,197.737 162.931,190.57 173.5,187C 188.496,186.5 203.496,186.333 218.5,186.5 Z"/></g>
<g><path style="opacity:1" fill="#ffd142" d="M 336.5,191.5 C 343.565,198.99 347.565,207.99 348.5,218.5C 347.883,218.389 347.383,218.056 347,217.5C 326.263,238.4 306.096,259.734 286.5,281.5C 274.5,281.5 262.5,281.5 250.5,281.5C 273.086,256.708 295.92,232.041 319,207.5C 324.424,201.569 330.258,196.236 336.5,191.5 Z"/></g>
<g><path style="opacity:1" fill="#ffcc3c" d="M 348.5,218.5 C 351.909,237.717 348.742,255.717 339,272.5C 335.057,276.221 330.557,279.055 325.5,281C 312.504,281.5 299.504,281.667 286.5,281.5C 306.096,259.734 326.263,238.4 347,217.5C 347.383,218.056 347.883,218.389 348.5,218.5 Z"/></g>
<g><path style="opacity:1" fill="#ffd648" d="M 336.5,191.5 C 330.258,196.236 324.424,201.569 319,207.5C 295.92,232.041 273.086,256.708 250.5,281.5C 249.532,283.607 249.198,285.941 249.5,288.5C 248.698,287.048 248.198,285.382 248,283.5C 237.697,294.804 227.03,305.804 216,316.5C 213.92,319.065 212.087,321.732 210.5,324.5C 205.958,321.763 203.125,317.763 202,312.5C 201.5,306.175 201.334,299.842 201.5,293.5C 218.935,274.895 236.602,256.395 254.5,238C 262.344,237.829 270.011,237.329 277.5,236.5C 292.304,235.871 301.137,228.204 304,213.5C 304.5,203.839 304.666,194.172 304.5,184.5C 311.508,184.334 318.508,184.5 325.5,185C 329.858,186.172 333.525,188.339 336.5,191.5 Z"/></g>
<g><path style="opacity:1" fill="#ffdc52" d="M 277.5,236.5 C 270.011,237.329 262.344,237.829 254.5,238C 236.602,256.395 218.935,274.895 201.5,293.5C 201.333,280.829 201.5,268.162 202,255.5C 205.211,244.802 212.377,238.635 223.5,237C 241.497,236.5 259.497,236.333 277.5,236.5 Z"/></g>
<g><path style="opacity:1" fill="#ffd142" d="M 249.5,288.5 C 259.5,288.5 269.5,288.5 279.5,288.5C 266.038,303.131 252.371,317.631 238.5,332C 241.365,332.183 244.031,332.683 246.5,333.5C 233.59,333.789 221.59,330.789 210.5,324.5C 212.087,321.732 213.92,319.065 216,316.5C 227.03,305.804 237.697,294.804 248,283.5C 248.198,285.382 248.698,287.048 249.5,288.5 Z"/></g>
<g><path style="opacity:1" fill="#ffcc3d" d="M 279.5,288.5 C 285.5,288.5 291.5,288.5 297.5,288.5C 297.666,297.839 297.5,307.173 297,316.5C 292.217,324.657 285.05,329.49 275.5,331C 265.911,332.751 256.244,333.584 246.5,333.5C 244.031,332.683 241.365,332.183 238.5,332C 252.371,317.631 266.038,303.131 279.5,288.5 Z"/></g>
<g><path style="opacity:1" fill="#fffefb" d="M 274.5,300.5 C 282.523,300.683 286.023,304.683 285,312.5C 282.103,317.155 277.937,318.655 272.5,317C 266.674,310.622 267.341,305.122 274.5,300.5 Z"/></g>
</svg>
